<svg width="93" height="57" viewBox="0 0 93 57" fill="none" xmlns="http://www.w3.org/2000/svg">
<path fill-rule="evenodd" clip-rule="evenodd" d="M14.7713 17.9019C14.7713 17.0414 14.4802 16.3907 13.9039 15.944C13.404 15.5632 12.7336 15.3713 11.8927 15.3713H9.33465V20.5885H11.831C12.5954 20.5885 13.2776 20.3337 13.8745 19.8299C14.4713 19.3232 14.7713 18.6815 14.7713 17.9019ZM14.2038 8.21104C14.2038 7.48542 13.9127 6.96069 13.3364 6.62487C12.8689 6.364 12.2397 6.23807 11.4487 6.23807H9.33171V10.199H11.3546C12.1603 10.199 12.8013 10.0731 13.2746 9.8122C13.8921 9.45538 14.2038 8.92466 14.2038 8.21104ZM34.5712 26.1386H23.1305V20.5915H25.5945V6.23807H23.1305V0.771938H34.5712V6.23807H32.0279V20.5915H34.5712V26.1386ZM61.5485 26.1386H56.1883V23.9977C55.7296 24.6724 54.8358 25.2871 53.5097 25.8418C52.1836 26.4025 50.7694 26.6843 49.2551 26.6843C45.7297 26.6843 42.6982 25.392 40.1666 22.8074C37.635 20.2257 36.3648 17.1284 36.3648 13.5212C36.3648 9.92014 37.635 6.82876 40.1725 4.24711C42.7159 1.67146 45.7738 0.382141 49.3463 0.382141C50.5988 0.382141 51.7161 0.553053 52.7011 0.891875C53.5862 1.19472 54.6006 1.73443 55.7473 2.52602V0.771938H60.9575V9.28147H54.0831C53.6685 8.73576 53.0334 8.22603 52.1807 7.75827C51.1575 7.19157 50.1519 6.90372 49.1816 6.90372C47.3939 6.90372 45.8708 7.54538 44.6065 8.82271C43.3422 10.1 42.71 11.6442 42.71 13.4403C42.71 15.2333 43.3451 16.7715 44.6182 18.0489C45.8914 19.3262 47.4145 19.9679 49.1845 19.9679C50.343 19.9679 51.3427 19.755 52.1807 19.3322C53.0187 18.9094 53.7832 18.2228 54.4741 17.2813H47.5438V11.8301H61.5573V26.1386H61.5485ZM23.748 48.0481C23.748 47.1876 23.4569 46.5369 22.8806 46.0901C22.3808 45.7093 21.7104 45.5174 20.8695 45.5174H18.3114V50.7347H20.8077C21.5722 50.7347 22.2543 50.4798 22.8512 49.9761C23.4452 49.4694 23.748 48.8277 23.748 48.0481ZM23.1805 38.3572C23.1805 37.6316 22.8894 37.1069 22.3131 36.771C21.8456 36.5102 21.2164 36.3842 20.4255 36.3842H18.3085V40.3452H20.3314C21.137 40.3452 21.778 40.2192 22.2514 39.9584C22.8689 39.6015 23.1805 39.0708 23.1805 38.3572ZM29.9932 49.2805C29.9932 51.2684 29.2228 52.9325 27.691 54.2758C26.1561 55.6161 24.3684 56.2848 22.3131 56.2848H9.33465V50.7377H12.0485V36.3842H9.33465V30.9181H22.8336C24.5507 30.9181 25.9944 31.5028 27.1764 32.6722C28.3555 33.8446 28.9435 35.3558 28.9435 37.2058C28.9435 38.4322 28.6877 39.4816 28.179 40.3601C27.6321 41.3256 26.8265 41.9943 25.7709 42.3631C27.2205 42.9838 28.2966 43.9013 28.9994 45.1156C29.6609 46.258 29.9932 47.6403 29.9932 49.2805ZM47.141 40.1443C47.141 38.765 46.6588 37.7905 45.6944 37.2238C45.0652 36.852 44.2066 36.6661 43.1216 36.6661H41.0928V43.5175H42.907C44.0861 43.5175 45.0299 43.2956 45.7414 42.8488C46.6735 42.2791 47.141 41.3796 47.141 40.1443ZM53.7714 56.2848H47.2822L41.1869 47.6613V50.7377H42.6012V56.2848H32.1955V50.7377H34.7682V36.3842H32.1955V30.9181H43.4216C46.6412 30.9181 49.1257 31.7247 50.8723 33.3408C52.5453 34.894 53.3833 37.0259 53.3833 39.7425C53.3833 42.0183 52.8364 43.8323 51.7397 45.1786C50.834 46.297 49.6962 46.9747 48.3289 47.2146L51.131 50.7407H53.7685V56.2848H53.7714ZM75.018 43.7664C75.018 41.9733 74.4035 40.4201 73.1774 39.1098C71.9454 37.7995 70.4517 37.1488 68.6964 37.1488C66.9116 37.1488 65.368 37.7965 64.0683 39.0888C62.7687 40.3811 62.1189 41.9403 62.1189 43.7664C62.1189 45.5594 62.7393 47.1006 63.9743 48.4019C65.218 49.7002 66.7087 50.3539 68.4523 50.3539C70.2518 50.3539 71.7954 49.7062 73.0862 48.4199C74.3741 47.1276 75.018 45.5744 75.018 43.7664ZM81.5073 43.4515C81.5073 47.1156 80.2371 50.2759 77.7055 52.9266C75.1739 55.5772 72.1101 56.9025 68.5288 56.9025C64.924 56.9025 61.9043 55.6761 59.4668 53.2234C56.9646 50.7047 55.7179 47.4964 55.7179 43.5895C55.7179 40.0003 56.9881 36.9239 59.5197 34.3633C62.0513 31.8086 65.0827 30.5283 68.6082 30.5283C72.1189 30.5283 75.1503 31.7906 77.6937 34.3093C80.2341 36.828 81.5073 39.8774 81.5073 43.4515ZM82.0277 36.6541L83.2891 35.0259C83.7242 35.2778 84.1947 35.4817 84.6828 35.6106C85.9265 35.9435 87.2938 35.8655 88.6022 35.2928C89.893 34.7231 90.9574 33.7486 91.6631 32.5612C92.3746 31.3619 92.7363 29.9556 92.6333 28.5373C92.5275 27.1041 91.9688 25.8328 91.0926 24.8703C90.3076 24.0127 89.2697 23.41 88.0847 23.1612C88.1053 22.4745 88.0494 21.7909 87.9112 21.1252C87.5731 19.5631 86.7792 18.1448 85.5737 17.0774C84.3711 16.0249 82.8833 15.4522 81.3456 15.3713C79.9107 15.2873 78.4141 15.6441 77.0645 16.4387C76.2794 15.8 75.3032 15.4312 74.2388 15.3922C73.0451 15.3563 71.9013 15.7461 70.9545 16.4507C69.9989 17.1463 69.2491 18.1568 68.8551 19.3532C68.47 20.5555 68.4788 21.7909 68.8375 22.8823C69.205 23.9647 69.9431 24.9362 70.9222 25.5449L69.3227 28.4774C69.4785 28.4684 69.6373 28.4624 69.7931 28.4594C75.2973 28.3514 80.0606 31.7577 82.0277 36.6541ZM21.0165 19.1343C21.0165 21.1223 20.2461 22.7864 18.7142 24.1297C17.1794 25.47 15.3917 26.1386 13.3364 26.1386H0.35791V20.5915H3.07181V6.23807H0.35791V0.771938H13.8568C15.574 0.771938 17.0177 1.35663 18.1997 2.52602C19.3787 3.6984 19.9668 5.20961 19.9668 7.05964C19.9668 8.28599 19.711 9.33544 19.2023 10.214C18.6554 11.1795 17.8498 11.8481 16.7942 12.2169C18.2438 12.8376 19.3199 13.7551 20.0226 14.9695C20.6842 16.1119 21.0165 17.4942 21.0165 19.1343Z" fill="white"/>
</svg>
