<svg width="176" height="176" viewBox="0 0 176 176" fill="none" xmlns="http://www.w3.org/2000/svg">
<mask id="mask0_1505_2" style="mask-type:alpha" maskUnits="userSpaceOnUse" x="-406" y="-100" width="1920" height="492">
<rect x="-406" y="-100" width="1920" height="492" fill="#EE3338"/>
</mask>
<g mask="url(#mask0_1505_2)">
<path d="M15.5777 63.9701C15.0379 65.4763 14.064 66.5493 12.6563 67.1891C11.2521 67.819 9.7869 67.8604 8.26064 67.3133L8.23052 67.3025C6.7143 66.7591 5.61077 65.7913 4.91994 64.3993C4.21906 63.0036 4.14214 61.5427 4.68917 60.0164C5.01307 59.1127 5.42896 58.3949 5.93684 57.8631C6.44832 57.3212 7.08096 56.8681 7.83476 56.5037L8.41684 57.6302C7.76496 57.9631 7.22495 58.3474 6.79682 58.7832C6.36225 59.2053 6.0244 59.7528 5.78328 60.4255C5.36581 61.5903 5.43342 62.7137 5.98613 63.7956C6.54243 64.8675 7.42807 65.6212 8.64305 66.0567L8.67318 66.0675C9.8982 66.5065 11.071 66.4906 12.1916 66.0198C13.3057 65.5353 14.0715 64.7106 14.489 63.5459C14.7337 62.8631 14.8241 62.2156 14.7602 61.6035C14.6963 60.9914 14.5055 60.3224 14.1878 59.5966L15.2366 59.0888C15.6268 59.8971 15.8637 60.6903 15.9475 61.4681C16.0213 62.2424 15.898 63.0764 15.5777 63.9701Z" fill="white"/>
<path d="M20.3512 51.8831L10.8416 45.9666L11.5093 44.8933L15.6799 47.4882L16.6435 45.9394L14.9407 39.3776L15.8113 37.9783L17.6173 45.2828L25.4478 43.6911L24.5603 45.1176L17.6334 46.4988L16.6445 48.0883L21.0189 50.8099L20.3512 51.8831Z" fill="white"/>
<path d="M32.9204 32.65C33.0208 34.2086 32.5068 35.5993 31.3785 36.8223C30.2501 38.0453 28.9126 38.669 27.3662 38.6934C25.8119 38.7106 24.4507 38.1803 23.2827 37.1025L23.2592 37.0808C22.0911 36.003 21.4569 34.6848 21.3565 33.1263C21.2483 31.5605 21.7583 30.1661 22.8867 28.9432C24.0151 27.7202 25.3564 27.1001 26.9107 27.0829C28.4572 27.0585 29.8144 27.5852 30.9825 28.663L31.006 28.6847C32.174 29.7625 32.8122 31.0843 32.9204 32.65ZM27.4057 37.4236C28.6357 37.4119 29.681 36.9396 30.5418 36.0067C31.4025 35.0738 31.786 34.0053 31.6923 32.8013C31.6059 31.5895 31.0884 30.5459 30.1398 29.6706L30.1163 29.6489C29.1677 28.7737 28.0785 28.3419 26.8486 28.3536C25.6259 28.3575 24.5842 28.8259 23.7234 29.7588C22.8627 30.6917 22.4755 31.7641 22.562 32.9759C22.6557 34.1799 23.1768 35.2196 24.1254 36.0948L24.1489 36.1165C25.0974 36.9918 26.183 37.4275 27.4057 37.4236Z" fill="white"/>
<path d="M38.7453 29.0074L32.2924 19.8532L35.7186 17.4378C36.756 16.7064 37.7686 16.3841 38.7563 16.4708C39.7466 16.5427 40.5583 17.0276 41.1913 17.9256L41.2097 17.9517C41.8796 18.902 42.0545 19.8815 41.7346 20.8901C41.4233 21.8926 40.7533 22.7565 39.7246 23.4817L37.5015 25.0489L39.7784 28.2791L38.7453 29.0074ZM36.8377 24.1074L39.1001 22.5125C39.8585 21.9778 40.3354 21.3675 40.5306 20.6818C40.7284 19.9812 40.6153 19.3301 40.1912 18.7285L40.1728 18.7023C39.7241 18.0659 39.1577 17.7344 38.4734 17.7078C37.7916 17.6664 37.0715 17.9131 36.3131 18.4478L33.9984 20.0795L36.8377 24.1074Z" fill="white"/>
<path d="M60.3262 14.9893C59.7838 16.4538 58.7484 17.5151 57.22 18.1731C55.6916 18.8311 54.2161 18.8567 52.7936 18.2497C51.3668 17.633 50.3392 16.5948 49.7107 15.1349L49.6981 15.1055C49.0696 13.6457 49.0266 12.1836 49.5691 10.719C50.1073 9.24467 51.1406 8.17849 52.669 7.52048C54.1974 6.86247 55.675 6.84182 57.1018 7.45855C58.5243 8.06547 59.5498 9.09884 60.1783 10.5587L60.1909 10.588C60.8194 12.0479 60.8645 13.5149 60.3262 14.9893ZM53.3463 17.1059C54.4746 17.5957 55.6217 17.5896 56.7875 17.0876C57.9534 16.5857 58.7385 15.7657 59.1428 14.6278C59.557 13.4856 59.5089 12.3217 58.9985 11.1363L58.9859 11.1069C58.4755 9.92138 57.6562 9.08375 56.528 8.594C55.4095 8.10002 54.2673 8.104 53.1014 8.60595C51.9356 9.10789 51.1456 9.92996 50.7315 11.0722C50.3271 12.2101 50.3801 13.3719 50.8905 14.5573L50.9031 14.5867C51.4135 15.7722 52.2279 16.6119 53.3463 17.1059Z" fill="white"/>
<path d="M83.4531 10.0423C82.4958 11.2762 81.1895 11.9775 79.534 12.146C77.8786 12.3145 76.4636 11.8957 75.289 10.8895C74.1133 9.87267 73.445 8.57368 73.2841 6.99252L73.2808 6.96068C73.1199 5.37952 73.5181 3.97195 74.4754 2.73798C75.4316 1.4934 76.7374 0.786842 78.3929 0.618308C80.0483 0.449775 81.4639 0.873918 82.6395 1.89074C83.8141 2.89695 84.4819 4.19063 84.6428 5.7718L84.6461 5.80363C84.807 7.3848 84.4094 8.79767 83.4531 10.0423ZM76.1598 9.96454C77.0889 10.7706 78.1848 11.1093 79.4476 10.9808C80.7104 10.8522 81.7055 10.3059 82.433 9.34197C83.1711 8.37693 83.4748 7.25238 83.3441 5.96835L83.3408 5.93652C83.2101 4.65248 82.6803 3.60744 81.7512 2.8014C80.8327 1.99427 79.7421 1.65498 78.4793 1.78354C77.2165 1.91211 76.2161 2.45891 75.478 3.42396C74.7505 4.38793 74.4521 5.51193 74.5828 6.79596L74.5861 6.8278C74.7168 8.11183 75.2413 9.15741 76.1598 9.96454Z" fill="white"/>
<path d="M92.2457 11.5954L93.0604 1.59653L89.2969 1.28993L89.3917 0.125787L98.1786 0.841619L98.0837 2.00576L94.3202 1.69916L93.5055 11.698L92.2457 11.5954Z" fill="white"/>
<path d="M102.781 12.7853L105.655 1.96029L106.876 2.28462L105.616 7.03217L107.379 7.50019L113.155 3.95142L114.748 4.37428L108.292 8.23918L112.106 15.2609L110.482 14.8298L107.134 8.61048L105.324 8.13014L104.002 13.1097L102.781 12.7853Z" fill="white"/>
<path d="M116.376 16.6909L121.327 6.64483L125.087 8.49813C126.226 9.0593 126.993 9.79433 127.39 10.7032C127.8 11.6072 127.763 12.552 127.277 13.5375L127.263 13.5662C126.749 14.6091 125.973 15.2313 124.934 15.4328C123.905 15.639 122.826 15.4639 121.697 14.9074L119.257 13.7049L117.51 17.2497L116.376 16.6909ZM119.766 12.6716L122.249 13.8953C123.081 14.3056 123.845 14.4324 124.541 14.2758C125.251 14.1143 125.768 13.7035 126.094 13.0433L126.108 13.0146C126.452 12.3162 126.472 11.6601 126.168 11.0465C125.878 10.428 125.317 9.91362 124.485 9.50335L121.945 8.25131L119.766 12.6716Z" fill="white"/>
<path d="M130.985 24.2674L138.13 15.6422L139.103 16.4486L136.521 19.566L138.751 21.4135C139.737 22.23 140.328 23.1215 140.525 24.0879C140.728 25.046 140.48 25.9482 139.779 26.7942L139.759 26.8189C139.03 27.6978 138.146 28.1218 137.105 28.0907C136.065 28.0596 135.047 27.6323 134.053 26.809L130.985 24.2674ZM132.704 24.1743L134.835 25.9401C135.542 26.5253 136.252 26.8298 136.966 26.8537C137.681 26.8776 138.273 26.6061 138.742 26.0393L138.763 26.0146C139.246 25.4314 139.411 24.8061 139.257 24.1387C139.112 23.4781 138.686 22.8552 137.979 22.27L135.786 20.4531L132.704 24.1743ZM139.105 30.9939L146.25 22.3687L147.223 23.1751L140.078 31.8002L139.105 30.9939Z" fill="white"/>
<path d="M146.985 39.2725L154.877 33.0791L152.546 30.1085L153.465 29.3875L158.907 36.3231L157.988 37.0441L155.657 34.0735L147.765 40.2669L146.985 39.2725Z" fill="white"/>
<path d="M157.729 56.1833L157.145 55.062L165.335 50.7998L153.836 48.7035L153.356 47.781L163.291 42.6102L163.875 43.7314L155.87 47.8976L167.11 49.9479L167.664 51.0124L157.729 56.1833Z" fill="white"/>
<path d="M160.107 61.95L170.876 58.8716L173.101 66.6559L171.993 66.9725L170.116 60.4036L166.439 61.4546L168.119 67.3313L167.011 67.6479L165.331 61.7713L161.562 62.8487L163.462 69.4945L162.354 69.8112L160.107 61.95Z" fill="white"/>
<path d="M167.987 87.3435C167.553 86.916 167.334 86.3962 167.33 85.7843C167.325 85.1723 167.537 84.6437 167.964 84.1986C168.392 83.7648 168.912 83.5457 169.524 83.5413L169.558 83.541C170.17 83.5366 170.693 83.7538 171.127 84.1927C171.56 84.6316 171.779 85.1513 171.784 85.752C171.788 86.3413 171.571 86.8585 171.132 87.3037C170.705 87.7602 170.191 87.9906 169.59 87.9949L169.556 87.9952C168.944 87.9996 168.421 87.7824 167.987 87.3435Z" fill="white"/>
<path d="M161.784 107.466C162.229 105.929 163.134 104.798 164.5 104.071C165.862 103.356 167.322 103.223 168.879 103.675L168.91 103.683C170.457 104.132 171.618 105.029 172.394 106.375C173.18 107.725 173.348 109.178 172.897 110.736C172.63 111.658 172.259 112.4 171.785 112.962C171.308 113.535 170.705 114.026 169.975 114.437L169.325 113.349C169.954 112.976 170.47 112.559 170.87 112.097C171.277 111.649 171.581 111.082 171.779 110.395C172.124 109.207 171.986 108.09 171.368 107.044C170.746 106.009 169.815 105.312 168.575 104.953L168.545 104.944C167.295 104.581 166.125 104.67 165.036 105.21C163.954 105.762 163.241 106.633 162.897 107.822C162.695 108.518 162.645 109.17 162.747 109.777C162.848 110.384 163.08 111.04 163.443 111.744L162.427 112.316C161.988 111.534 161.702 110.757 161.57 109.986C161.448 109.218 161.52 108.378 161.784 107.466Z" fill="white"/>
<path d="M157.737 119.84L167.598 125.15L166.999 126.263L162.674 123.934L161.809 125.54L163.92 131.983L163.139 133.434L160.879 126.257L153.163 128.335L153.96 126.856L160.787 125.044L161.674 123.396L157.138 120.953L157.737 119.84Z" fill="white"/>
<path d="M146.421 139.792C146.223 138.243 146.649 136.823 147.698 135.531C148.748 134.24 150.043 133.533 151.585 133.412C153.135 133.297 154.527 133.741 155.76 134.743L155.785 134.763C157.019 135.766 157.734 137.042 157.932 138.591C158.139 140.147 157.717 141.57 156.668 142.862C155.619 144.153 154.319 144.856 152.769 144.971C151.227 145.092 149.839 144.652 148.606 143.65L148.581 143.629C147.347 142.627 146.628 141.348 146.421 139.792ZM151.625 134.682C150.399 134.771 149.385 135.308 148.584 136.293C147.784 137.278 147.468 138.368 147.637 139.564C147.8 140.768 148.382 141.777 149.383 142.591L149.408 142.611C150.41 143.425 151.524 143.788 152.751 143.699C153.971 143.618 154.981 143.085 155.782 142.1C156.582 141.115 156.901 140.021 156.739 138.816C156.57 137.621 155.984 136.616 154.983 135.802L154.958 135.782C153.956 134.968 152.845 134.601 151.625 134.682Z" fill="white"/>
<path d="M140.772 143.705L147.798 152.427L144.533 155.057C143.545 155.853 142.555 156.239 141.564 156.216C140.571 156.208 139.73 155.776 139.041 154.92L139.02 154.895C138.291 153.99 138.054 153.024 138.309 151.997C138.555 150.976 139.168 150.071 140.149 149.282L142.267 147.575L139.788 144.498L140.772 143.705ZM142.989 148.472L140.834 150.209C140.111 150.791 139.674 151.431 139.523 152.127C139.371 152.839 139.525 153.482 139.987 154.055L140.007 154.08C140.496 154.686 141.082 154.981 141.767 154.964C142.45 154.961 143.153 154.669 143.875 154.087L146.081 152.31L142.989 148.472Z" fill="white"/>
<path d="M120.139 159.147C120.589 157.651 121.557 156.528 123.042 155.776C124.527 155.025 125.998 154.908 127.455 155.426C128.917 155.953 130.007 156.926 130.725 158.344L130.739 158.372C131.457 159.791 131.59 161.247 131.14 162.743C130.694 164.247 129.728 165.376 128.244 166.127C126.759 166.878 125.286 166.99 123.823 166.463C122.366 165.946 121.278 164.978 120.561 163.56L120.546 163.531C119.829 162.113 119.693 160.651 120.139 159.147ZM126.974 156.602C125.818 156.183 124.673 156.26 123.541 156.833C122.408 157.406 121.675 158.273 121.342 159.434C121 160.6 121.12 161.758 121.702 162.91L121.717 162.939C122.3 164.09 123.169 164.875 124.326 165.294C125.473 165.718 126.612 165.643 127.745 165.07C128.877 164.497 129.615 163.628 129.958 162.462C130.291 161.301 130.166 160.145 129.583 158.993L129.569 158.965C128.986 157.813 128.121 157.026 126.974 156.602Z" fill="white"/>
<path d="M97.3807 165.52C98.2586 164.229 99.5184 163.447 101.16 163.174C102.802 162.902 104.24 163.232 105.476 164.162C106.713 165.103 107.461 166.357 107.721 167.925L107.726 167.957C107.986 169.525 107.677 170.955 106.799 172.246C105.923 173.548 104.664 174.336 103.023 174.608C101.381 174.88 99.9417 174.546 98.7045 173.605C97.4691 172.674 96.7214 171.425 96.4615 169.857L96.4562 169.825C96.1963 168.257 96.5045 166.822 97.3807 165.52ZM104.665 165.14C103.687 164.394 102.572 164.124 101.319 164.332C100.067 164.54 99.1083 165.147 98.4428 166.155C97.7668 167.165 97.5343 168.306 97.7453 169.579L97.7506 169.611C97.9616 170.884 98.5561 171.894 99.5339 172.64C100.501 173.388 101.611 173.658 102.863 173.45C104.116 173.243 105.08 172.634 105.756 171.625C106.421 170.617 106.648 169.476 106.437 168.203L106.432 168.172C106.221 166.898 105.632 165.888 104.665 165.14Z" fill="white"/>
<path d="M88.5153 164.528L88.3283 174.558L92.1037 174.628L92.0819 175.796L83.2674 175.632L83.2892 174.464L87.0646 174.534L87.2516 164.504L88.5153 164.528Z" fill="white"/>
<path d="M77.9441 164.001L75.748 174.984L74.5085 174.736L75.4717 169.919L73.6831 169.562L68.1386 173.462L66.5226 173.139L72.726 168.881L68.4833 162.109L70.1307 162.439L73.8587 168.438L75.6944 168.805L76.7046 163.753L77.9441 164.001Z" fill="white"/>
<path d="M64.1572 160.861L59.8449 171.198L55.9761 169.584C54.8047 169.095 53.9927 168.41 53.5401 167.528C53.0736 166.651 53.0519 165.706 53.4749 164.692L53.4872 164.662C53.9349 163.589 54.6708 162.92 55.6949 162.653C56.7091 162.383 57.7971 162.49 58.9587 162.975L61.469 164.022L62.9906 160.375L64.1572 160.861ZM61.0255 165.085L58.4709 164.02C57.6144 163.662 56.844 163.584 56.1596 163.783C55.4613 163.989 54.9704 164.432 54.687 165.111L54.6747 165.14C54.3749 165.859 54.396 166.515 54.7378 167.108C55.0658 167.707 55.658 168.186 56.5144 168.543L59.1281 169.633L61.0255 165.085Z" fill="white"/>
<path d="M49.0623 154.296L42.4733 163.352L41.4512 162.609L43.8326 159.335L41.4908 157.631C40.4558 156.878 39.8098 156.026 39.5527 155.074C39.2894 154.13 39.4809 153.214 40.1272 152.326L40.1461 152.3C40.8175 151.377 41.6736 150.898 42.7142 150.864C43.7549 150.83 44.7971 151.192 45.8407 151.952L49.0623 154.296ZM47.353 154.496L45.1148 152.868C44.373 152.328 43.6449 152.069 42.9305 152.09C42.216 152.111 41.6423 152.419 41.2093 153.014L41.1905 153.04C40.745 153.653 40.6198 154.287 40.8149 154.943C41.0015 155.594 41.4656 156.188 42.2074 156.728L44.5103 158.404L47.353 154.496ZM40.5362 148.092L33.9471 157.149L32.925 156.405L39.5141 147.349L40.5362 148.092Z" fill="white"/>
<path d="M32.1133 140.352L24.6223 147.024L27.1338 149.844L26.2617 150.621L20.3979 144.038L21.2701 143.261L23.7816 146.08L31.2726 139.408L32.1133 140.352Z" fill="white"/>
<path d="M20.477 123.996L21.1229 125.082L13.1874 129.8L24.7857 131.244L25.3172 132.138L15.6901 137.861L15.0442 136.775L22.8009 132.163L11.4631 130.751L10.8499 129.719L20.477 123.996Z" fill="white"/>
<path d="M17.6451 118.51L7.09031 122.256L4.3823 114.627L5.46793 114.241L7.75315 120.68L11.3568 119.4L9.31246 113.641L10.3981 113.255L12.4425 119.015L16.1366 117.704L13.8247 111.19L14.9103 110.805L17.6451 118.51Z" fill="white"/>
<path d="M8.11114 85.9452C8.53063 86.3867 8.73254 86.9134 8.71686 87.5252C8.70118 88.137 8.47241 88.6583 8.03056 89.0891C7.58901 89.5086 7.06233 89.7105 6.45053 89.6949L6.41654 89.694C5.80474 89.6783 5.28924 89.444 4.87004 88.9912C4.45084 88.5383 4.24893 88.0116 4.26432 87.4111C4.27942 86.822 4.51355 86.3122 4.96673 85.8816C5.40887 85.4395 5.93018 85.2261 6.53065 85.2415L6.56464 85.2423C7.17644 85.258 7.69194 85.4923 8.11114 85.9452Z" fill="white"/>
</g>
</svg>
