<svg width="148" height="42" viewBox="0 0 148 42" fill="none" xmlns="http://www.w3.org/2000/svg">
<path fill-rule="evenodd" clip-rule="evenodd" d="M78.0153 30.7817C78.5925 31.2292 78.884 31.881 78.884 32.7429C78.884 33.5238 78.5807 34.1665 77.9859 34.6741C77.3881 35.1787 76.7049 35.434 75.9393 35.434H73.4393V30.2081H76.0012C76.8433 30.2081 77.5147 30.4003 78.0153 30.7817ZM77.447 21.4472C78.0242 21.7836 78.3157 22.3092 78.3157 23.036C78.3157 23.7508 78.0036 24.2824 77.3852 24.6398C76.9111 24.9011 76.2691 25.0272 75.4623 25.0272H73.4363V21.0598H75.5565C76.3486 21.0598 76.9788 21.1859 77.447 21.4472ZM82.8329 38.981C84.3671 37.6354 85.1386 35.9686 85.1386 33.9773C85.1386 32.3345 84.8058 30.9499 84.1432 29.8056C83.4395 28.5892 82.3617 27.6702 80.91 27.0485C81.9671 26.6791 82.774 26.0093 83.3217 25.0422C83.8311 24.1623 84.0873 23.1111 84.0873 21.8827C84.0873 20.0296 83.4984 18.5159 82.3175 17.3416C81.1338 16.1702 79.6879 15.5846 77.9682 15.5846H64.4491V21.0598H67.1671V35.437H64.4491V40.9932H77.447C79.5053 40.9932 81.2957 40.3235 82.8329 38.981ZM100.863 21.9007C101.829 22.4683 102.312 23.4444 102.312 24.826C102.312 26.0634 101.844 26.9644 100.91 27.5351C100.198 27.9826 99.2525 28.2048 98.0717 28.2048H96.2548V21.3421H98.2866C99.3732 21.3421 100.233 21.5283 100.863 21.9007ZM102.453 40.9932H108.949V35.44H106.308L103.502 31.908C104.871 31.6677 106.011 30.989 106.918 29.8687C108.016 28.5202 108.564 26.7031 108.564 24.4235C108.564 21.7025 107.724 19.5671 106.049 18.0113C104.3 16.3925 101.811 15.5846 98.587 15.5846H87.3441V21.0598H89.9207V35.437H87.3441V40.9932H97.7654V35.437H96.349V32.3555L102.453 40.9932ZM128.387 23.7898C129.615 25.1023 130.231 26.6581 130.231 28.4541C130.231 30.2651 129.586 31.8209 128.296 33.1154C127.003 34.4038 125.457 35.0525 123.655 35.0525C121.909 35.0525 120.416 34.3978 119.17 33.0973C117.934 31.7939 117.312 30.2501 117.312 28.4541C117.312 26.625 117.963 25.0633 119.265 23.7688C120.566 22.4743 122.112 21.8256 123.9 21.8256C125.658 21.8256 127.154 22.4774 128.387 23.7898ZM132.922 37.6294C135.458 34.9744 136.73 31.8089 136.73 28.1387C136.73 24.5587 135.455 21.5043 132.91 18.9814C130.363 16.4586 127.327 15.1941 123.811 15.1941C120.281 15.1941 117.245 16.4766 114.709 19.0355C112.174 21.6004 110.902 24.6818 110.902 28.2769C110.902 32.1903 112.15 35.4039 114.656 37.9268C117.097 40.3835 120.122 41.6119 123.732 41.6119C127.318 41.6119 130.387 40.2844 132.922 37.6294ZM138.514 19.6992L137.251 21.3301C135.281 16.4255 130.51 13.0137 124.998 13.1218C124.842 13.1248 124.683 13.1308 124.527 13.1398L126.129 10.2025C125.148 9.59282 124.409 8.61972 124.041 7.5355C123.682 6.44227 123.673 5.20487 124.059 4.00051C124.453 2.80216 125.204 1.79002 126.161 1.09324C127.109 0.38744 128.255 -0.00299885 129.45 0.0330418C130.516 0.0720858 131.494 0.441502 132.28 1.08122C133.632 0.285326 135.131 -0.0720787 136.568 0.0120161C138.108 0.0931076 139.598 0.666757 140.802 1.72095C142.01 2.79015 142.805 4.21075 143.143 5.77552C143.282 6.44227 143.338 7.12704 143.317 7.81482C144.504 8.0641 145.543 8.66778 146.329 9.52675C147.207 10.4908 147.766 11.7643 147.872 13.1999C147.975 14.6205 147.613 16.0291 146.901 17.2304C146.194 18.4198 145.128 19.3959 143.835 19.9665C142.525 20.5402 141.156 20.6183 139.91 20.2849C139.421 20.1557 138.95 19.9515 138.514 19.6992ZM13.5662 30.7144C14.1434 31.1619 14.4349 31.8136 14.4349 32.6756C14.4349 33.4565 14.1346 34.0992 13.5368 34.6068C12.939 35.1113 12.2558 35.3666 11.4902 35.3666H8.99016V30.1407H11.5521C12.3942 30.1407 13.0656 30.333 13.5662 30.7144ZM12.9979 21.3799C13.5751 21.7162 13.8666 22.2418 13.8666 22.9686C13.8666 23.6835 13.5544 24.2151 12.9361 24.5725C12.462 24.8338 11.82 24.9599 11.0132 24.9599H8.98722V20.9924H11.1074C11.8995 20.9924 12.5297 21.1186 12.9979 21.3799ZM22.8067 40.9259H34.2645V35.3696H31.7173V20.9924H34.2645V15.5172H22.8067V20.9924H25.2743V35.3696H22.8067V40.9259ZM55.9139 40.9259H61.2821H61.2909V26.5937H47.2565V32.0539H54.1972C53.5052 32.997 52.7395 33.6847 51.9003 34.1082C51.0611 34.5317 50.0599 34.7449 48.8997 34.7449C47.127 34.7449 45.6016 34.1022 44.3265 32.8228C43.0515 31.5433 42.4154 30.0026 42.4154 28.2066C42.4154 26.4075 43.0485 24.8608 44.3148 23.5813C45.581 22.3019 47.1063 21.6592 48.8967 21.6592C49.8685 21.6592 50.8756 21.9475 51.9003 22.5151C52.7543 22.9837 53.3903 23.4942 53.8055 24.0409H60.6902V15.5172H55.4722V17.2742C54.3238 16.4813 53.3079 15.9407 52.4215 15.6374C51.435 15.298 50.3161 15.1268 49.0616 15.1268C45.4838 15.1268 42.4213 16.4183 39.8742 18.9982C37.3329 21.5841 36.0608 24.6806 36.0608 28.2876C36.0608 31.9007 37.3329 35.0032 39.8683 37.5891C42.4037 40.1781 45.4396 41.4725 48.9703 41.4725C50.4868 41.4725 51.9032 41.1902 53.2313 40.6286C54.5594 40.0729 55.4546 39.4572 55.9139 38.7815V40.9259ZM18.3838 38.9136C19.9179 37.5681 20.6894 35.9012 20.6894 33.91C20.6894 32.2671 20.3567 30.8826 19.6941 29.7383C18.9904 28.5219 17.9126 27.6029 16.4609 26.9812C17.518 26.6118 18.3249 25.942 18.8726 24.9749C19.382 24.0949 19.6382 23.0437 19.6382 21.8153C19.6382 19.9623 19.0493 18.4485 17.8684 17.2742C16.6847 16.1029 15.2388 15.5172 13.5191 15.5172H0V20.9924H2.71796V35.3696H0V40.9259H12.9979C15.0562 40.9259 16.8466 40.2561 18.3838 38.9136Z" fill="#EE3338"/>
</svg>
