<svg width="37" height="37" viewBox="0 0 37 37" fill="none" xmlns="http://www.w3.org/2000/svg">
<g clip-path="url(#clip0_2015_16)">
<path d="M0.00902554 16.8976C0.00819777 16.4535 0.367641 16.0929 0.811745 16.092C1.02584 16.0917 1.23128 16.1767 1.3825 16.3283L18.504 33.4514L35.6255 16.3283C35.9449 16.0197 36.454 16.0286 36.7626 16.3481C37.0635 16.6597 37.0635 17.1537 36.7626 17.4653L19.0717 35.1562C18.7577 35.4701 18.2487 35.4701 17.9346 35.1562L0.243854 17.4654C0.09346 17.3147 0.00902553 17.1105 0.00902554 16.8976Z" fill="#FF4646"/>
<path d="M0.00902935 5.64061C0.00820158 5.1965 0.367645 4.83585 0.811752 4.83502C1.02585 4.83464 1.23128 4.91968 1.38251 5.07128L18.5041 22.1944L35.6255 5.07129C35.94 4.75685 36.4497 4.75685 36.7642 5.07129C37.0786 5.38573 37.0786 5.89549 36.7642 6.20993L19.0733 23.9008C18.7593 24.2147 18.2503 24.2147 17.9362 23.9008L0.245441 6.20993C0.0941429 6.05908 0.00902934 5.85426 0.00902935 5.64061Z" fill="#FF4646"/>
</g>
<defs>
<clipPath id="clip0_2015_16">
<rect width="37" height="37" fill="white" transform="translate(37) rotate(90)"/>
</clipPath>
</defs>
</svg>
