<svg width="80" height="80" viewBox="0 0 80 80" fill="none" xmlns="http://www.w3.org/2000/svg">
<path d="M21.5177 37.9403L25.9375 35.6167L30.3573 37.9405C31.1536 38.3589 32.1098 38.2822 32.8258 37.762C33.5475 37.2377 33.9089 36.3489 33.7581 35.4697L32.9139 30.5481L36.4897 27.0627C37.1286 26.44 37.3586 25.5086 37.0828 24.6602C36.8072 23.8117 36.0738 23.1933 35.1909 23.065L30.2494 22.347L28.0394 17.8692C27.6444 17.0689 26.8297 16.5625 25.9375 16.5625C25.0453 16.5625 24.2306 17.0689 23.8358 17.8689L21.6258 22.3467L16.6842 23.0647C15.8014 23.193 15.0678 23.8114 14.7923 24.6598C14.5166 25.5083 14.7466 26.4397 15.3855 27.0623L18.9612 30.5478L18.117 35.4694C17.9662 36.3486 18.3277 37.2373 19.0494 37.7617C19.7711 38.2861 20.7278 38.3556 21.5177 37.9403V37.9403ZM23.5192 26.8084C24.2827 26.6975 24.9423 26.2181 25.2839 25.5262L25.9375 24.202L26.5911 25.5262C26.9327 26.218 27.5923 26.6975 28.3558 26.8084L29.8172 27.0208L28.7597 28.0516C28.2072 28.59 27.9552 29.3658 28.0856 30.1261L28.3353 31.5814L27.0284 30.8942C26.3456 30.5353 25.53 30.5353 24.847 30.8942L23.5402 31.5814L23.7898 30.1261C23.9203 29.3658 23.6683 28.59 23.1158 28.0516L22.0583 27.0208L23.5192 26.8084ZM58.75 42.3438H21.25C19.9556 42.3438 18.9062 43.3931 18.9062 44.6875C18.9062 56.3186 28.3689 65.7812 40 65.7812C51.6311 65.7812 61.0938 56.3186 61.0938 44.6875C61.0938 43.3931 60.0444 42.3438 58.75 42.3438ZM40 61.0938C31.7492 61.0938 24.9027 54.9714 23.7619 47.0312H56.2381C55.0973 54.9714 48.2508 61.0938 40 61.0938V61.0938ZM65.2077 24.66C64.932 23.8116 64.1986 23.1931 63.3158 23.0648L58.3742 22.3469L56.1642 17.8691C55.7694 17.0689 54.9547 16.5625 54.0625 16.5625C53.1703 16.5625 52.3556 17.0689 51.9608 17.8689L49.7508 22.3467L44.8092 23.0647C43.9264 23.193 43.1928 23.8114 42.9173 24.6598C42.6416 25.5083 42.8716 26.4397 43.5105 27.0623L47.0862 30.5478L46.242 35.4694C46.0913 36.3486 46.4527 37.2373 47.1744 37.7617C47.8961 38.2859 48.853 38.3553 49.6428 37.9402L54.0625 35.6167L58.4823 37.9405C59.2786 38.3589 60.2348 38.2822 60.9508 37.762C61.6725 37.2377 62.0339 36.3489 61.8831 35.4697L61.0389 30.5481L64.6147 27.0627C65.2534 26.4398 65.4834 25.5084 65.2077 24.66V24.66ZM56.8847 28.0514C56.3322 28.5898 56.0802 29.3656 56.2106 30.1259L56.4603 31.5812L55.1534 30.8941C54.4706 30.5352 53.655 30.5352 52.972 30.8941L51.6652 31.5812L51.9148 30.1259C52.0453 29.3656 51.7933 28.5898 51.2408 28.0514L50.1833 27.0206L51.6447 26.8083C52.4081 26.6973 53.0678 26.218 53.4094 25.5261L54.063 24.2019L54.7166 25.5261C55.0581 26.2178 55.7178 26.6973 56.4813 26.8083L57.9427 27.0206L56.8847 28.0514ZM40 0C17.9752 0 0 17.9764 0 40C0 62.025 17.9764 80 40 80C62.0248 80 80 62.0236 80 40C80 17.975 62.0236 0 40 0ZM40 75.3125C20.5286 75.3125 4.6875 59.4714 4.6875 40C4.6875 20.5286 20.5286 4.6875 40 4.6875C59.4714 4.6875 75.3125 20.5286 75.3125 40C75.3125 59.4714 59.4714 75.3125 40 75.3125Z" fill="#EE3338"/>
</svg>
