<svg width="80" height="80" viewBox="0 0 80 80" fill="none" xmlns="http://www.w3.org/2000/svg">
<path d="M28.2812 21.25C28.2812 19.9556 27.2319 18.9062 25.9375 18.9062C21.897 18.9062 18.012 20.3934 14.9984 23.0936C14.0344 23.9573 13.9531 25.4392 14.8169 26.4031C15.6767 27.3628 17.1581 27.4523 18.1264 26.5847C20.2791 24.6559 23.0531 23.5938 25.9375 23.5938C27.2319 23.5938 28.2812 22.5444 28.2812 21.25V21.25ZM32.9688 35.3125C32.9688 31.4355 29.8145 28.2812 25.9375 28.2812C22.0605 28.2812 18.9062 31.4355 18.9062 35.3125C18.9062 39.1895 22.0605 42.3438 25.9375 42.3438C29.8145 42.3438 32.9688 39.1895 32.9688 35.3125ZM25.9375 37.6562C24.6452 37.6562 23.5938 36.6048 23.5938 35.3125C23.5938 34.0202 24.6452 32.9688 25.9375 32.9688C27.2298 32.9688 28.2812 34.0202 28.2812 35.3125C28.2812 36.6048 27.2298 37.6562 25.9375 37.6562ZM54.0625 28.2812C50.1855 28.2812 47.0312 31.4355 47.0312 35.3125C47.0312 39.1895 50.1855 42.3438 54.0625 42.3438C57.9395 42.3438 61.0938 39.1895 61.0938 35.3125C61.0938 31.4355 57.9395 28.2812 54.0625 28.2812ZM54.0625 37.6562C52.7702 37.6562 51.7188 36.6048 51.7188 35.3125C51.7188 34.0202 52.7702 32.9688 54.0625 32.9688C55.3548 32.9688 56.4062 34.0202 56.4062 35.3125C56.4062 36.6048 55.3548 37.6562 54.0625 37.6562ZM65.0016 23.0936C61.988 20.3934 58.103 18.9062 54.0625 18.9062C52.7681 18.9062 51.7188 19.9556 51.7188 21.25C51.7188 22.5444 52.7681 23.5938 54.0625 23.5938C56.9469 23.5938 59.7209 24.6559 61.8734 26.5847C62.8419 27.4527 64.3236 27.3625 65.183 26.4031C66.0469 25.4392 65.9656 23.9575 65.0016 23.0936V23.0936ZM40 0C17.9766 0 0 17.9752 0 40C0 62.0234 17.9752 80 40 80C62.0234 80 80 62.0248 80 40C80 17.9766 62.0248 0 40 0ZM40 75.3125C20.5286 75.3125 4.6875 59.4714 4.6875 40C4.6875 20.5286 20.5286 4.6875 40 4.6875C59.4714 4.6875 75.3125 20.5286 75.3125 40C75.3125 59.4714 59.4714 75.3125 40 75.3125ZM40 51.7188C35.5973 51.7188 31.3917 53.8216 28.75 57.3438C27.9733 58.3792 28.1833 59.8483 29.2188 60.625C30.2542 61.4017 31.7234 61.1919 32.5 60.1562C34.2611 57.8081 37.0648 56.4062 40 56.4062C42.9352 56.4062 45.7389 57.8081 47.5 60.1562C48.2717 61.1852 49.7391 61.4066 50.7812 60.625C51.8167 59.8483 52.0267 58.3792 51.25 57.3438C48.6083 53.8216 44.4027 51.7188 40 51.7188Z" fill="#747474"/>
</svg>
